<mxfile host="app.diagrams.net" modified="2024-07-18T19:28:21.480Z" agent="Mozilla/5.0 (Windows NT 10.0; Win64; x64; rv:128.0) Gecko/20100101 Firefox/128.0" version="24.7.1" etag="gnjQwEshehi6Yd4mVxcV" type="github">
  <diagram name="PÃ¡gina-1" id="eKEvD0L2zmmE-sGAd3Wh">
    <mxGraphModel>
      <root>
        <mxCell id="0" />
        <mxCell id="1" parent="0" />
      </root>
    </mxGraphModel>
  </diagram>
</mxfile>
